<svg width="1046" height="1046" viewBox="0 0 1046 1046" fill="none" xmlns="http://www.w3.org/2000/svg">
<g id="Frame 1">
<g id="Group">
<path id="Vector" d="M518.957 529.995C526.849 521.898 546.393 521.429 555.908 526.63C558.746 528.189 561.412 530.039 563.866 532.148C571.064 538.295 618.187 586.617 619.457 586.861C620.17 587 620.52 586.64 621.044 586.177C625.946 581.827 630.477 576.797 635.101 572.138L664.159 542.885L706.389 501.387C714.262 493.733 721.99 486.625 729.853 478.56C742.203 465.888 755.398 451.707 769.504 440.996C776.151 435.949 780.727 436.083 788.633 436.332C797.189 436.632 805.263 440.368 811.032 446.695C817.644 453.89 818.922 463.443 818.627 472.873C818.369 477.717 817.311 484.145 814.279 488.041C807.594 496.634 800.421 504.893 793.116 512.96C767.711 541.008 742.631 569.337 717.433 597.566C711.266 604.474 705.643 612.056 699.423 618.94C688.401 630.733 678.004 642.813 666.977 654.589C658.544 663.595 650.033 674.395 640.863 682.758C633.769 689.227 622.503 689.051 613.672 688.474C603.665 687.907 595.163 680.808 588.809 673.616C585.046 669.358 581.524 663.965 577.706 660.005C566.611 648.49 557.31 635.882 547.164 623.63C538.277 612.901 528.041 603.209 519.618 592.046C514.652 586.377 510.567 581.001 506.956 574.313C503.444 567.801 504.208 563.135 504.258 556.1C504.3 550.104 508.602 537.469 514.115 534.589C515.891 532.719 516.991 531.662 518.957 529.995ZM545.671 591.781L587.254 639.34C593.747 646.908 599.816 655.112 606.807 662.178C609.739 664.773 614.855 667.595 618.659 667.847C628.06 668.473 633.937 659.499 639.532 653.128C651.31 639.714 662.897 626.284 674.918 613.053L728.228 554.021C736.876 544.276 745.302 533.964 754.116 524.083L782.669 492.416C786.993 487.633 791.346 483.251 795.5 478.167C800.425 472.139 799.867 466.222 794.337 460.738C792.413 458.83 789.328 456.79 786.487 456.905C785.486 456.953 784.485 457.026 783.487 457.124C775.158 459.694 752.978 484.691 744.997 492.135C712.223 522.707 681.606 556.057 649.187 587.065C641.845 594.089 634.948 601.718 627.147 608.036C624.633 610.088 616.799 610.333 613.549 608.796C599.955 599.037 589.637 585.023 577.498 573.675C566.54 564.678 557.726 552.571 546.514 544.184C539.194 538.707 529.37 543.599 525.366 550.885C517.11 565.907 536.887 579.914 545.671 591.781Z" fill="#0ADA97"/>
<path id="Vector (Stroke)" d="M777.001 428.33C781.065 427.553 785.186 427.719 788.901 427.836H788.917L788.931 427.837C799.761 428.218 809.982 432.942 817.291 440.944C826.207 450.647 827.438 463.051 827.123 473.138L827.12 473.232L827.115 473.326C826.966 476.119 826.583 479.505 825.739 482.876C824.969 485.951 823.691 489.529 821.449 492.645L820.988 493.261C814.122 502.087 806.793 510.52 799.417 518.665V518.666C774.039 546.684 749.003 574.963 723.774 603.226C720.84 606.513 718.016 609.981 715.033 613.636C712.094 617.237 709.004 621.014 705.73 624.638L705.682 624.692L705.633 624.744C700.191 630.567 694.894 636.471 689.528 642.449C684.181 648.405 678.766 654.436 673.181 660.399C665.525 668.574 656.017 680.442 646.59 689.038C641.327 693.838 634.881 695.843 629.13 696.671C623.423 697.493 617.683 697.252 613.192 696.959V696.96C613.174 696.959 613.155 696.958 613.137 696.956C613.131 696.956 613.124 696.956 613.118 696.955V696.954C599.963 696.179 589.723 687.322 583.073 679.954L582.439 679.245C580.318 676.844 578.28 674.142 576.542 671.882C574.697 669.486 573.125 667.5 571.586 665.904L571.586 665.903C560.914 654.827 551.594 642.467 542.445 631.274L540.618 629.052C536.346 623.896 531.764 619.002 526.947 613.74C522.275 608.635 517.446 603.248 513.025 597.416C507.887 591.533 503.436 585.686 499.476 578.35L499.475 578.348C494.677 569.453 495.715 562.068 495.757 556.039L495.765 555.618C495.882 551.221 497.322 545.649 499.283 540.92C500.333 538.388 501.666 535.768 503.294 533.445C504.591 531.592 506.377 529.496 508.737 527.915C510.229 526.375 511.433 525.242 513.205 523.73C519.293 517.736 528.468 515.373 536.249 514.845C544.069 514.315 552.791 515.471 559.357 518.839L559.985 519.172L559.993 519.176L560 519.18C563.349 521.019 566.494 523.201 569.386 525.684L569.785 526.031C574.198 529.924 587.683 543.458 599.904 555.717C606.332 562.165 612.543 568.397 617.227 573.033C618.171 573.967 619.049 574.829 619.847 575.612C622.793 572.676 625.698 569.546 629.068 566.151L629.071 566.148L658.128 536.895L658.165 536.858L658.202 536.823L700.432 495.325L700.464 495.292C708.563 487.419 715.997 480.596 723.765 472.627C735.867 460.21 749.618 445.423 764.364 434.227C768.567 431.035 772.562 429.178 777.001 428.33ZM788.338 444.827C784.165 444.695 782.05 444.672 780.192 445.027C778.798 445.293 777.29 445.836 775.093 447.432L774.644 447.766C761.178 457.991 748.54 471.566 735.94 484.494H735.939C727.983 492.655 719.961 500.048 712.314 507.482L670.19 548.875L641.133 578.125C636.916 582.375 631.845 587.956 626.686 592.535L626.681 592.539L626.675 592.544C626.655 592.563 626.634 592.581 626.599 592.612C626.569 592.639 626.524 592.678 626.477 592.719C626.386 592.799 626.243 592.926 626.073 593.066C625.747 593.334 625.154 593.797 624.353 594.228C623.501 594.687 622.448 595.093 621.209 595.282C619.987 595.467 618.849 595.4 617.852 595.207C617.847 595.206 617.842 595.206 617.836 595.204H617.834V595.204C616.715 594.986 615.903 594.592 615.62 594.451C615.239 594.26 614.942 594.077 614.767 593.964C614.416 593.738 614.134 593.524 613.978 593.402C613.645 593.142 613.324 592.864 613.069 592.638C612.534 592.165 611.869 591.545 611.136 590.846C609.651 589.431 607.63 587.452 605.268 585.115C600.534 580.429 594.276 574.15 587.865 567.719C574.802 554.615 561.604 541.394 558.346 538.612L558.336 538.603L558.327 538.595C556.32 536.871 554.144 535.359 551.832 534.088V534.089C548.948 532.513 543.45 531.396 537.399 531.806C531.199 532.227 526.853 534.071 525.044 535.927L524.762 536.217L524.455 536.478C522.746 537.926 521.868 538.769 520.28 540.442L519.305 541.468L518.168 542.061C518.12 542.106 517.777 542.399 517.216 543.199C516.485 544.242 515.707 545.696 514.987 547.432C513.471 551.088 512.768 554.623 512.757 556.16C512.7 564.201 512.21 566.148 514.436 570.275L515.044 571.377C517.903 576.466 521.133 580.791 525.141 585.443L526.012 586.445L526.216 586.678L526.404 586.926C530.354 592.161 534.781 597.121 539.487 602.262C544.115 607.318 549.094 612.635 553.71 618.207L553.711 618.208C564.263 630.951 573.02 642.89 583.828 654.107H583.827C586.105 656.47 588.202 659.161 590.014 661.515C591.931 664.006 593.536 666.13 595.177 667.988C601.061 674.645 607.349 679.326 613.552 679.941L614.153 679.988L614.19 679.99L614.226 679.992C618.554 680.275 622.831 680.403 626.707 679.845C630.57 679.289 633.304 678.147 635.135 676.477C644.048 668.349 651.561 658.615 660.773 648.779L662.807 646.595C667.541 641.491 672.183 636.322 676.877 631.093C682.194 625.17 687.578 619.169 693.127 613.229C696.068 609.972 698.897 606.521 701.863 602.887C704.788 599.303 707.86 595.526 711.092 591.905C736.259 563.711 761.385 535.331 786.817 507.253C794.05 499.266 801.067 491.181 807.57 482.823L807.571 482.822C808.071 482.179 808.717 480.868 809.248 478.748C809.748 476.749 810.021 474.531 810.133 472.502C810.394 463.781 809.063 457.114 804.773 452.446L804.752 452.422C800.524 447.786 794.607 445.048 788.338 444.827ZM786.144 448.412C789.63 448.271 792.654 449.434 794.778 450.575C796.975 451.755 798.874 453.267 800.321 454.702C804.026 458.375 806.904 463.035 807.316 468.623C807.72 474.111 805.643 479.037 802.4 483.149L802.083 483.544C797.763 488.832 792.941 493.728 788.973 498.117L760.428 529.775C756.105 534.623 751.864 539.59 747.579 544.618C743.303 549.633 738.976 554.716 734.586 559.663L734.537 559.718L681.226 618.749L681.209 618.769C669.252 631.929 657.761 645.249 645.919 658.736L645.919 658.737C643.757 661.198 640.027 666.048 636.159 669.474C631.932 673.218 625.958 676.852 618.094 676.329V676.328C614.598 676.095 611.208 674.797 608.602 673.493C605.892 672.136 603.251 670.381 601.174 668.543L600.963 668.357L600.764 668.157C593.531 660.846 586.715 651.766 580.802 644.874H580.801L539.272 597.375L539.045 597.116L538.839 596.838C536.975 594.32 534.455 591.597 531.377 588.253C528.456 585.078 525.095 581.407 522.263 577.528C516.748 569.973 511.29 558.85 517.917 546.791C520.867 541.423 525.882 536.972 531.716 534.788C537.743 532.531 545.188 532.577 551.605 537.377C557.847 542.047 563.298 547.656 568.243 552.825C573.346 558.158 577.896 563.003 582.891 567.105L583.103 567.279L583.302 567.465C589.631 573.382 595.615 580.122 601.16 585.997C606.554 591.713 611.773 596.886 617.473 601.134C617.565 601.15 617.671 601.17 617.794 601.186C618.478 601.275 619.336 601.313 620.226 601.271C621.121 601.229 621.852 601.116 622.326 600.997C629.552 595.057 635.528 588.37 643.312 580.923C659.41 565.526 675.067 549.54 690.905 533.47C706.705 517.438 722.666 501.341 739.199 485.919V485.918C743.182 482.204 749.998 474.805 758.134 466.758C761.983 462.952 765.983 459.159 769.63 456.11C771.454 454.586 773.294 453.16 775.062 451.984C776.73 450.874 778.785 449.679 780.982 449.001L781.802 448.748L782.657 448.664C783.795 448.553 784.937 448.469 786.078 448.414L786.111 448.413L786.144 448.412ZM786.461 465.418C786.16 465.435 785.859 465.454 785.558 465.476C785.308 465.614 784.95 465.824 784.477 466.138C783.406 466.85 782.085 467.857 780.533 469.154C777.43 471.747 773.824 475.15 770.088 478.845C763.057 485.8 754.793 494.622 750.794 498.351L750.794 498.35C734.552 513.5 718.819 529.365 703.013 545.403C687.244 561.403 671.383 577.598 655.062 593.208L655.061 593.207C648.35 599.627 640.632 608.052 632.497 614.641L632.496 614.64C630.466 616.288 628.12 617.069 626.5 617.478C624.696 617.933 622.799 618.169 621.023 618.252C617.845 618.402 613.412 618.134 609.915 616.48L609.218 616.15L608.592 615.701C601.105 610.326 594.67 603.89 588.795 597.665C582.801 591.313 577.595 585.421 571.845 580.028C565.988 575.181 560.735 569.568 555.96 564.577C550.955 559.346 546.393 554.709 541.422 550.991V550.99C540.519 550.314 539.392 550.067 537.676 550.709C535.768 551.424 533.869 553.062 532.815 554.979C531.186 557.942 531.489 561.333 535.994 567.504C538.172 570.488 540.887 573.482 543.886 576.741C546.644 579.737 549.78 583.102 552.273 586.417L593.653 633.745L593.679 633.775L593.705 633.805C600.696 641.954 605.977 649.206 612.615 655.96C613.477 656.691 614.777 657.573 616.21 658.289C617.845 659.108 618.915 659.345 619.222 659.366H619.223C620.761 659.468 622.427 658.928 624.887 656.748C627.707 654.251 629.712 651.428 633.145 647.519L641.931 637.484C650.719 627.431 659.551 617.326 668.609 607.356L721.894 548.351C726.143 543.562 730.347 538.626 734.641 533.588C738.924 528.565 743.293 523.447 747.772 518.425L747.788 518.408L747.803 518.391L776.356 486.724L776.364 486.715C781.045 481.538 784.93 477.671 788.918 472.789V472.788C790.418 470.951 790.375 470.046 790.362 469.873C790.344 469.625 790.178 468.584 788.352 466.774L788.351 466.773C787.875 466.3 787.27 465.839 786.734 465.551C786.621 465.49 786.529 465.448 786.461 465.418Z" fill="#0ADA97" fill-opacity="0.988235"/>
<path id="Vector_2" d="M259.147 329.608C258.91 326.344 258.624 322.652 258.791 319.439C260.517 286.081 281.574 254.803 313.289 243.017C317.31 241.524 320.431 240.01 325.13 238.713C332.158 236.77 341.311 238.028 348.134 234.905C349.664 233.46 354.943 220.31 357.06 216.837C360.465 211.308 364.596 206.26 369.344 201.829C390.487 181.734 410.633 177.418 438.497 178.225C453.613 177.726 474.829 186.654 485.718 197.16C504.123 214.916 514.319 231.63 514.644 257.782C514.861 275.319 514.834 292.627 514.838 310.074L514.849 404.755L514.985 460.048C515.022 468.957 515.425 478.067 515.039 486.95C514.699 494.717 509.964 501.506 501.516 501.257C497.6 501.122 493.908 499.4 491.285 496.49C489.883 494.915 488.498 492.357 488.396 490.253C488.055 483.189 488.194 475.799 488.225 468.722L488.347 428.797L488.161 303.542C488.102 286.361 489.622 258.707 485.346 242.75C479.761 221.905 457.496 206.74 436.846 205.498C411.615 203.98 389.733 210.158 377.731 233.85C376.873 235.544 370.337 250.143 370.037 250.331C368.364 254.333 367.518 256.341 364.846 259.917C359.685 261.902 346.351 261.665 340.022 262.001C318.462 263.138 298.707 279.77 289.464 298.572C280.853 315.818 285.701 325.371 283.619 342.549C273.774 352.465 270.522 350.898 259.524 356.972C242.588 366.325 231.763 383.635 232.163 403.227C232.294 409.705 232.917 418.333 232.563 424.594C226.038 430.411 219.597 435.549 213.014 442.033C192.003 462.739 186.713 490.672 192.854 518.747C193.386 521.178 196.526 525.731 197.135 528.434C199.844 535.152 203.543 541.738 208.395 547.162C211.28 550.41 214.291 553.544 217.421 556.556C223.051 561.871 232.643 566.934 231.017 575.122C226.625 597.233 228.81 621.179 245.455 638.683C274.381 669.103 328.609 667.411 358.478 638.732C388.473 609.992 394.266 586.716 441.584 591.352C448.82 597.683 451.206 604.868 442.977 611.544C426.582 611.579 414.858 609.189 402.712 622.309C397.95 627.453 387.523 638.272 384.007 643.57C384.258 646.561 385.236 648.473 385.78 651.149C389.6 669.965 399.525 676.268 416.921 681.763C424.891 676.627 433.191 670.531 443.163 672.903C457.611 676.339 464.267 691.136 460.553 704.606C458.982 710.444 455.122 715.405 449.847 718.365C444.591 721.331 435.835 722.943 430.008 721.078C421.818 718.455 417.039 710.904 413.432 703.682L412.992 702.798C389.905 693.9 377.827 688.36 368.376 665.129C367.724 663.526 367.375 661.113 366.38 660.204C364.417 660.412 351.07 670.104 347.836 671.681C325.666 682.488 313.018 683.494 289.511 683.594C290.819 688.63 292.588 695.433 294.553 699.813C303.095 718.849 328.842 738.942 350.038 740.623C378.133 742.854 370.539 739.226 385.388 763.323C405.807 796.455 461.349 799.358 482.186 764.516C490.57 751.052 488.65 735.003 488.676 719.425L488.631 664.259C488.611 657.521 488.073 644.935 489.894 639.01C493.399 635.239 497.02 631.909 502.642 631.843C505.406 631.794 508.068 632.881 510.005 634.853C511.613 636.481 512.687 639.173 513.433 641.316C515.312 648.495 515.278 737.667 513.831 747.206C514.64 751.22 510.812 762.528 509.149 766.661C501.032 786.825 487.544 800.357 467.352 808.654C446.219 817.12 422.604 816.92 401.617 808.096C383.241 800.313 365.43 785.25 357.865 766.391C339.462 766.528 314.401 757.958 300.171 746.642C276.43 727.761 267.188 707.772 262.716 678.911C223.068 663.135 200.952 630.084 203.203 587.217C203.358 584.279 203.486 581.329 203.547 578.387C191.617 566.666 182.723 558.924 175.441 543.483C166.476 524.473 163.654 508.875 165.053 488.157C167.17 456.812 184.008 432.876 206.961 412.817C204.648 393.813 210.681 373.101 221.717 357.585C230.837 344.765 244.733 335.525 259.147 329.608Z" fill="#0ADA97"/>
<path id="Vector_3" d="M590.972 181.634C593.227 179.339 603.883 178.14 607.219 177.731C649.219 172.573 685.398 194.82 697.717 235.777C703.731 235.979 715.256 235.765 720.494 237.16C737.571 241.712 754.895 252.133 766.487 265.496C776.788 277.372 785.466 292.185 787.844 307.828C788.903 315.007 788.6 321.555 789.377 328.152C798.537 333.249 808.721 337.574 815.99 345.219C822.479 352.044 829.165 359.078 831.942 368.31C834.216 375.749 831.302 385.52 823.004 387.743C809.782 390.785 805.369 376.239 798.511 368.231C793.612 362.51 789.448 359.599 782.917 355.805C777.918 352.9 769.08 349.803 765.654 345.39L762.992 341.942C761.756 332.381 762.928 319.122 760.736 309.914C755.089 286.204 733.128 264.955 708.551 262.244C703.196 261.651 686.274 261.51 682.102 260.235C678.503 259.136 672.051 239.185 669.62 234.345C667.199 229.491 664.079 225.017 660.363 221.066C649.597 209.666 638.138 204.105 622.454 203.428C603.015 202.59 589.954 205.584 575.09 219.031C568.436 225.049 560.348 237.99 558.707 246.913C556.913 256.668 557.402 267.286 557.41 277.341L557.453 318.333L557.44 425.873C557.524 446.95 557.483 468.03 557.32 489.107C550.112 501.622 540.39 501.81 531.995 490.468C530.761 479.342 531.65 457.568 531.74 445.281L531.779 374.243L531.752 293.521C531.744 258.119 527.932 229.174 556.28 202.079C568.223 190.665 575.672 187.369 590.972 181.634Z" fill="#0ADA97"/>
<path id="Vector_4" d="M556.135 685.481C559.62 690.664 557.749 731.971 558.331 741.355C558.587 745.014 559.181 748.64 560.106 752.186C568.154 783.773 604.028 793.405 632.272 786.324C649.748 781.942 666.382 766.058 674.492 750.188C677.222 744.85 678.241 738.842 681.244 733.644C686.388 724.627 699.786 728.833 710.741 726.004C742.084 717.907 763.374 695.087 770.504 663.628C771.899 657.478 770.346 645.235 773.403 640.454C775.521 637.139 786.089 633.094 790.245 631.279C804.168 625.204 817.907 610.666 823.41 596.457C825.935 589.899 827.333 582.963 827.545 575.939C827.985 559.224 818.832 542.192 841.119 537.199C858.073 542.42 855.479 555.696 856.133 569.731C857.63 601.881 842.616 634.434 814.468 651.08C809.412 654.069 804.096 657.162 799.175 660.574C797.534 665.642 797.191 673.007 795.642 678.874C789.593 701.79 777.603 715.1 761.39 731.34C750.448 742.3 717.538 754.926 703.022 754.258C692.926 778.835 684.623 792.999 659.552 805.949C643.212 814.389 629.712 817.3 611.469 816.372C601.914 816.499 593.344 814.669 584.332 811.933C557.144 803.679 534.551 778.161 531.66 749.616C530.741 740.537 529.341 693.069 532.097 685.89C533.462 682.321 536.255 679.483 539.803 678.063C543.042 676.772 546.705 676.876 549.873 678.294C551.81 679.16 555.273 682.464 555.465 684.589L556.135 685.481ZM532.249 688.677C531.785 700.138 531.926 712.191 531.924 723.699C531.922 729.967 531.701 742.883 532.596 748.944C533.162 737.042 535.642 698.63 532.249 688.677Z" fill="#0ADA97"/>
<path id="Vector_5" d="M542.596 748.944C541.701 742.883 541.922 729.967 541.924 723.699C541.926 712.191 541.785 700.138 542.249 688.677C545.642 698.63 543.162 737.042 542.596 748.944Z" fill="#0ADA97" fill-opacity="0.988235"/>
<path id="Vector (Stroke)_2" d="M551.714 685.45C553.076 689.447 553.571 695.037 553.804 700.164C554.054 705.672 554.041 712.031 553.905 718.296C553.635 730.804 552.86 743.645 552.585 749.419L532.703 750.405C531.667 743.386 531.922 729.293 531.924 723.696C531.926 712.362 531.782 699.997 532.257 688.273L551.714 685.45Z" fill="#0ADA97" fill-opacity="0.988235"/>
<path id="Vector_6" d="M286.957 427.571C288.396 427.412 289.838 427.318 291.282 427.291C309.927 426.98 309.659 439.878 318.07 444.321C331.302 451.316 349.709 453.743 361.883 465.264C377.616 480.155 374.519 510.389 374.607 531.468L409.558 531.507C425.608 531.542 452.021 530.504 461.905 546.112L461.915 554.233C453.956 569.488 443.649 553.663 432.496 552.772C413.579 551.226 394.471 552.129 375.483 552.178C366.147 552.202 366.835 557.91 360.86 563.481C342.222 580.859 316.133 580.365 298.114 563.287C294.774 560.834 293.26 558.521 289.961 556.341C287.693 556.239 282.698 559.116 280.024 559.712C268.387 562.309 253.32 556.29 250.584 543.755C249.263 537.697 249.322 528.032 252.983 522.906C256.619 517.966 261.641 513.085 267.788 512.076C292.304 508.056 294.339 521.923 302.891 539.607C303.728 541.34 314.926 550.319 317.627 552.272C329.412 560.785 345.27 553.669 351.897 542.087C353.15 539.926 353.899 537.509 354.093 535.019C354.621 528.99 354.572 492.944 353.115 488.668C350.843 481.998 343.674 477.299 337.654 474.316C334.499 472.753 315.882 464.459 313.14 466.015C308.417 468.698 306.55 474.095 300.122 476.134C293.315 478.294 284.747 478.1 278.434 474.547C272.855 471.407 268.456 465.621 266.922 459.413C265.676 454.368 265.514 444.562 268.507 440.096C272.7 433.839 279.676 429.13 286.957 427.571Z" fill="#0ADA97"/>
<path id="Vector_7" d="M415.873 270.914C433.381 270.849 443.817 284.522 442.317 301.54C441.584 309.849 434.981 315.612 428.805 320.513C427.581 351.454 435.197 371.947 406.571 393.19C407.47 393.68 408.353 394.195 409.223 394.734C420.917 402.03 433.422 418.277 434.284 432.56C434.834 441.204 433.669 450.462 436.695 458.734C438.566 463.4 442.662 467.141 446.252 470.535C450.697 474.737 452.317 479.712 448.123 485.031C442.818 491.763 434.805 489.442 429.023 484.797C412.533 471.55 414.198 450.601 413.354 431.677C413.06 425.33 402.714 416.202 398.023 412.708L397.682 412.461C394.403 409.154 386.248 402.645 382.491 399.519C372.819 391.602 363.332 383.463 354.038 375.107C337.445 382.707 318.027 375.003 317.024 354.69C315.919 332.301 341.964 319.81 358.77 335.073C365.324 341.027 366.394 350.01 366.56 358.298C368.292 359.616 391.496 377.643 391.418 377.62C395.694 375.571 406.005 364.6 406.571 360.214C408.079 348.512 407.378 332.92 407.339 321.187C404.598 319.428 402.448 317.725 400.026 315.7C389.527 306.923 389.122 289.131 398.74 279.535C403.362 274.924 408.921 271.149 415.873 270.914Z" fill="#0ADA97"/>
<path id="Vector_8" d="M626.685 271C609.176 270.935 598.74 284.608 600.24 301.626C600.973 309.935 607.576 315.698 613.752 320.6C614.976 351.54 607.36 372.034 635.987 393.276C635.088 393.767 634.205 394.282 633.335 394.821C621.64 402.116 609.135 418.364 608.273 432.647C607.723 441.29 608.888 450.549 605.862 458.821C603.991 463.487 599.895 467.228 596.305 470.621C591.859 474.824 590.239 479.798 594.434 485.118C599.739 491.85 607.752 489.529 613.534 484.883C630.025 471.637 628.36 450.688 629.204 431.764C629.498 425.416 639.844 416.288 644.534 412.795L644.876 412.548C648.155 409.24 656.31 402.731 660.068 399.606C669.739 391.689 679.227 383.55 688.521 375.194C705.114 382.794 724.533 375.09 725.536 354.777C726.641 332.388 700.595 319.897 683.789 335.16C677.235 341.113 676.164 350.096 675.999 358.384C674.266 359.702 651.062 377.729 651.14 377.707C646.864 375.658 636.552 364.687 635.987 360.301C634.479 348.599 635.18 333.007 635.218 321.274C637.96 319.515 640.109 317.811 642.532 315.786C653.031 307.01 653.436 289.217 643.817 279.622C639.196 275.011 633.637 271.235 626.685 271Z" fill="#0ADA97"/>
</g>
</g>
</svg>
